REM DIRINDEX 1\2\5,1\2\6,1\2\7,1\2\8,1\3\9,1\3\10,1\3\11,1\4\12,1\4\13,1\4\14,1\4\15,1\4\16
REM DIRNAME folder01,folder02,folder03,folder04,folder05,folder06,folder07,folder08,folder09,folder10,folder11,folder12,folder13,folder14,folder15,folder16
TITLE ""
FILE "1200_sec03_0646_0654.mp3" MP3
  TRACK 01 AUDIO
    TITLE "0:"
    INDEX 01 00:00:00
  TRACK 02 AUDIO
    TITLE "12:cjc034_06238"
    INDEX 01 00:00:17
  TRACK 03 AUDIO
    TITLE "0:"
    INDEX 01 00:01:36
  TRACK 04 AUDIO
    TITLE "13:cjc034_06239"
    INDEX 01 00:01:71
  TRACK 05 AUDIO
    TITLE "0:"
    INDEX 01 00:04:21
  TRACK 06 AUDIO
    TITLE "14:cjc034_06240"
    INDEX 01 00:04:52
  TRACK 07 AUDIO
    TITLE "0:"
    INDEX 01 00:05:71
  TRACK 08 AUDIO
    TITLE "15:cjc034_06241"
    INDEX 01 00:06:30
  TRACK 09 AUDIO
    TITLE "0:"
    INDEX 01 00:10:27
  TRACK 10 AUDIO
    TITLE "12:cjc034_06242"
    INDEX 01 00:11:62
  TRACK 11 AUDIO
    TITLE "0:"
    INDEX 01 00:13:14
  TRACK 12 AUDIO
    TITLE "13:cjc034_06243"
    INDEX 01 00:13:47
  TRACK 13 AUDIO
    TITLE "0:"
    INDEX 01 00:14:49
  TRACK 14 AUDIO
    TITLE "14:cjc034_06244"
    INDEX 01 00:15:09
  TRACK 15 AUDIO
    TITLE "0:"
    INDEX 01 00:16:36
  TRACK 16 AUDIO
    TITLE "15:cjc034_06245"
    INDEX 01 00:16:69
  TRACK 17 AUDIO
    TITLE "0:"
    INDEX 01 00:21:11
  TRACK 18 AUDIO
    TITLE "12:cjc034_06246"
    INDEX 01 00:22:42
  TRACK 19 AUDIO
    TITLE "0:"
    INDEX 01 00:23:71
  TRACK 20 AUDIO
    TITLE "13:cjc034_06247"
    INDEX 01 00:24:31
  TRACK 21 AUDIO
    TITLE "0:"
    INDEX 01 00:25:48
  TRACK 22 AUDIO
    TITLE "14:cjc034_06248"
    INDEX 01 00:26:07
  TRACK 23 AUDIO
    TITLE "0:"
    INDEX 01 00:27:36
  TRACK 24 AUDIO
    TITLE "15:cjc034_06249"
    INDEX 01 00:27:71
  TRACK 25 AUDIO
    TITLE "0:"
    INDEX 01 00:31:14
  TRACK 26 AUDIO
    TITLE "12:cjc034_06250"
    INDEX 01 00:32:48
  TRACK 27 AUDIO
    TITLE "0:"
    INDEX 01 00:33:64
  TRACK 28 AUDIO
    TITLE "13:cjc034_06251"
    INDEX 01 00:34:24
  TRACK 29 AUDIO
    TITLE "0:"
    INDEX 01 00:35:29
  TRACK 30 AUDIO
    TITLE "14:cjc034_06252"
    INDEX 01 00:35:61
  TRACK 31 AUDIO
    TITLE "0:"
    INDEX 01 00:37:03
  TRACK 32 AUDIO
    TITLE "15:cjc034_06253"
    INDEX 01 00:37:36
  TRACK 33 AUDIO
    TITLE "0:"
    INDEX 01 00:41:06
  TRACK 34 AUDIO
    TITLE "12:cjc034_06254"
    INDEX 01 00:42:41
  TRACK 35 AUDIO
    TITLE "0:"
    INDEX 01 00:43:54
  TRACK 36 AUDIO
    TITLE "13:cjc034_06255"
    INDEX 01 00:44:11
  TRACK 37 AUDIO
    TITLE "0:"
    INDEX 01 00:46:13
  TRACK 38 AUDIO
    TITLE "14:cjc034_06256"
    INDEX 01 00:46:45
  TRACK 39 AUDIO
    TITLE "0:"
    INDEX 01 00:47:60
  TRACK 40 AUDIO
    TITLE "15:cjc034_06257"
    INDEX 01 00:48:16
  TRACK 41 AUDIO
    TITLE "0:"
    INDEX 01 00:51:71
  TRACK 42 AUDIO
    TITLE "12:cjc034_06258"
    INDEX 01 00:53:35
  TRACK 43 AUDIO
    TITLE "0:"
    INDEX 01 00:54:48
  TRACK 44 AUDIO
    TITLE "13:cjc034_06259"
    INDEX 01 00:55:03
  TRACK 45 AUDIO
    TITLE "0:"
    INDEX 01 00:57:25
  TRACK 46 AUDIO
    TITLE "14:cjc034_06260"
    INDEX 01 00:57:60
  TRACK 47 AUDIO
    TITLE "0:"
    INDEX 01 00:58:71
  TRACK 48 AUDIO
    TITLE "15:cjc034_06261"
    INDEX 01 00:59:30
  TRACK 49 AUDIO
    TITLE "0:"
    INDEX 01 01:03:45
  TRACK 50 AUDIO
    TITLE "12:cjc034_06262"
    INDEX 01 01:05:05
  TRACK 51 AUDIO
    TITLE "0:"
    INDEX 01 01:06:30
  TRACK 52 AUDIO
    TITLE "13:cjc034_06263"
    INDEX 01 01:06:61
  TRACK 53 AUDIO
    TITLE "0:"
    INDEX 01 01:09:30
  TRACK 54 AUDIO
    TITLE "14:cjc034_06264"
    INDEX 01 01:09:69
  TRACK 55 AUDIO
    TITLE "0:"
    INDEX 01 01:11:17
  TRACK 56 AUDIO
    TITLE "15:cjc034_06265"
    INDEX 01 01:11:49
  TRACK 57 AUDIO
    TITLE "0:"
    INDEX 01 01:14:45
  TRACK 58 AUDIO
    TITLE "16:cjc034_06266"
    INDEX 01 01:16:03
  TRACK 59 AUDIO
    TITLE "0:"
    INDEX 01 01:20:67
  TRACK 60 AUDIO
    TITLE "12:cjc034_06267"
    INDEX 01 01:21:70
  TRACK 61 AUDIO
    TITLE "0:"
    INDEX 01 01:23:30
  TRACK 62 AUDIO
    TITLE "13:cjc034_06268"
    INDEX 01 01:23:62
  TRACK 63 AUDIO
    TITLE "0:"
    INDEX 01 01:25:00
  TRACK 64 AUDIO
    TITLE "14:cjc034_06269"
    INDEX 01 01:25:33
  TRACK 65 AUDIO
    TITLE "0:"
    INDEX 01 01:26:68
  TRACK 66 AUDIO
    TITLE "15:cjc034_06270"
    INDEX 01 01:27:24
  TRACK 67 AUDIO
    TITLE "0:"
    INDEX 01 01:31:32
  TRACK 68 AUDIO
    TITLE "12:cjc034_06271"
    INDEX 01 01:32:70
  TRACK 69 AUDIO
    TITLE "0:"
    INDEX 01 01:33:74
  TRACK 70 AUDIO
    TITLE "13:cjc034_06272"
    INDEX 01 01:34:32
  TRACK 71 AUDIO
    TITLE "0:"
    INDEX 01 01:37:68
  TRACK 72 AUDIO
    TITLE "14:cjc034_06273"
    INDEX 01 01:38:22
  TRACK 73 AUDIO
    TITLE "0:"
    INDEX 01 01:39:27
  TRACK 74 AUDIO
    TITLE "15:cjc034_06274"
    INDEX 01 01:39:61
  TRACK 75 AUDIO
    TITLE "0:"
    INDEX 01 01:42:73
